<svg width="100%" height="100%" viewBox="0 0 100 100" fill="none" xmlns="http://www.w3.org/2000/svg">
<path d="M88.1063 50.8476C87.9372 50.7167 87.7618 50.5936 87.5794 50.4789C86.2498 49.6411 84.6363 49.2995 83.0703 49.4156C80.9678 49.5715 78.9095 50.5781 77.6178 52.2486C76.3169 53.9307 75.8647 56.1208 75.7125 58.2438C75.2564 64.6088 74.8831 70.2286 69.8113 74.7694C65.7463 78.4084 60.0311 79.9645 54.7035 78.7504C47.4499 77.0971 41.8898 70.2906 42.2757 62.7599C42.5967 56.498 47.0977 50.6632 53.061 48.7788C56.7558 47.6114 60.8506 47.8954 64.4343 49.3695C67.859 50.7783 71.0511 53.7185 73.2223 56.7267C74.2576 50.4975 77.8813 46.8638 82.5395 45.3062C80.1826 41.6253 72.8533 36.0833 67.3633 34.0595C61.7631 31.9953 78.3198 14.8315 80.5707 12.7613C82.4497 11.0324 84.4283 9.36651 85.886 7.26818C86.556 6.30416 87.1268 5.1593 86.9444 3.99825C86.8026 3.09334 86.2227 2.35379 85.4622 1.82674C84.9496 1.47139 84.355 1.21244 83.7572 1.06397C76.431 -0.754655 68.7802 4.99253 63.5355 9.51499C60.2248 12.3698 57.2291 15.5637 54.3264 18.828C51.8233 21.6434 49.8976 25.2391 47.0626 27.7093C46.7055 28.0207 46.1652 28.3211 45.8007 28.0189C45.6271 27.8747 45.5657 27.6375 45.5285 27.4145C45.1759 25.2929 46.054 22.7411 46.6315 20.7194C47.2619 18.5131 48.0741 16.3581 49.0735 14.2932C50.6312 11.0757 52.4814 7.96059 53.2999 4.44262C53.5286 3.45924 53.65 2.36751 53.1536 1.48863C52.5797 0.472537 51.3255 0.0316906 50.1611 0.00284029C41.9049 -0.203685 35.4929 10.9012 32.8323 17.4365C30.0657 24.2332 28.9006 31.5045 27.3745 38.6443C27.2921 39.0306 27.0728 39.5158 26.6827 39.4609C26.5115 39.4366 26.3764 39.3057 26.2628 39.1748C25.3135 38.082 24.9616 36.4886 24.7518 35.096C24.508 33.4787 24.522 31.8388 24.4687 30.2084C24.3434 26.3892 24.6301 22.3242 23.8291 18.5778C23.6369 17.6764 23.3299 16.7321 22.6055 16.1646C21.5902 15.3691 20.1097 15.5876 18.9267 16.0999C14.5888 17.9787 12.0598 22.8494 10.8575 27.2083C9.41352 32.4436 8.39122 37.8424 8.09934 43.2839C6.90409 65.5574 16.4619 89.2522 38.564 97.2888C52.4035 102.321 69.6917 100.551 80.6815 90.2771C85.9789 85.3251 89.7538 78.7514 91.3209 71.6571C92.427 66.6491 92.6116 60.6243 91.1599 55.6519C90.6189 53.7995 89.6201 52.0178 88.1063 50.8476Z" fill="#0C8688"/>
</svg>
