<svg width="100%" height="100%" viewBox="0 0 130 130" fill="none" xmlns="http://www.w3.org/2000/svg">
<path fill-rule="evenodd" clip-rule="evenodd" d="M109.898 36.861C109.898 36.861 107.173 41.8825 99.6765 49.596C102.281 55.0165 103.75 61.088 103.75 67.507C103.75 88.1125 88.7315 105.198 69.0455 108.447C80.578 104.248 88.949 93.565 83.239 83.536C79.11 76.278 68.2265 77.037 56.898 81.827C32.6788 92.0754 17.6112 96.8509 17.0182 97.0378L17 97.0435L109.898 36.861ZM62.245 26C75.406 26 87.12 32.144 94.7215 41.7045C82.5455 45.887 53.8145 63.9535 41.1415 66.091C31.987 67.6355 28.5975 63.8055 27.209 59.7965C24.8955 53.1305 27.702 42.121 36.7705 34.749C43.6865 29.125 52.6375 26 62.245 26ZM115.168 29.9625C120.886 26.233 126.025 26.6745 126.025 26.6745C126.025 26.6745 124.36 31.558 118.643 35.287C118.642 35.2895 117.204 42.1315 116.997 43.107C116.094 40.335 114.824 37.6335 113.156 35.0735C111.481 32.515 109.523 30.263 107.347 28.32C108.329 28.5325 115.124 29.9905 115.168 29.9625Z" fill="#600ce8"/>
</svg>
